<?xml version="1.0" encoding="utf-8"?>

<!DOCTYPE svg PUBLIC "-//W3C//DTD SVG 1.1//EN" "http://www.w3.org/Graphics/SVG/1.1/DTD/svg11.dtd">
<!-- Uploaded to: SVG Repo, www.svgrepo.com, Generator: SVG Repo Mixer Tools -->
<svg height="800px" width="800px" version="1.1" id="_x32_" xmlns="http://www.w3.org/2000/svg" xmlns:xlink="http://www.w3.org/1999/xlink" 
	 viewBox="0 0 512 512"  xml:space="preserve">
<style type="text/css">
	.st0{fill:#FFFFFF;}
</style>
<g>
	<path class="st0" d="M440.985,179.046c31.453-10.867,50.79-74.983,34.14-101.957c0.62,17.317-30.526,30.431-41.392,11.817
		C426.709,58.742,485.05,29.443,512,25.616c-12.799-19.274-83.178-27.728-108.667,7.111c-17.168,23.447-11.927,38.8-34.705,30.11
		c-24.908-9.531-3.175-43.82,16.76-50.043c-78.589-14.536-58.483,66.01-87.979,58.262c-29.504-7.731-1.878-32.702,1.336-35.916
		c-52.974-8.455-40.34,46.618-81.252,57.225c-24.248,9.091-38.336,10.875-51.395,13.145c-70.126,12.202-131.484,61.5-155.685,133.74
		C-24.694,344.128,31.855,457.588,136.718,492.71c104.864,35.107,218.339-21.419,253.462-126.298
		c4.659-13.907,7.684-27.964,9.2-41.974c1.124-10.396,5.681-22.881,9.642-32.121c12.194-28.522,46.79-38.721,55.213-52.094
		c18.826-29.928,3.591-48.732,3.591-48.732s-7.002,17.742-26.88,19.644C421.052,213.037,409.54,189.92,440.985,179.046z
		 M218.364,156.354c3.418-6.53,5.759-13.287,7.307-20.012c31.689,5.004,61.24,19.007,85.102,39.97
		c4.557,4.015,8.903,8.274,13.035,12.768c-6.709-0.157-13.467-0.031-20.28,0.401c-23.226,1.414-46.869,6.42-69.851,14.568
		c-5.045,1.776-10.034,3.677-14.992,5.759c-7.338-9.546-15.055-18.544-23.116-26.959c3.394-2.522,6.6-5.288,9.538-8.313
		C210.46,169.114,214.946,162.915,218.364,156.354z M156.77,139.83c17.813-4.66,35.656-6.294,53.037-5.225
		c-1.359,4.911-3.23,9.665-5.688,14.159c-4.73,8.737-11.708,16.249-20.461,22.205c-11.244-10.678-22.944-20.288-34.871-28.844
		C151.427,141.3,154.075,140.53,156.77,139.83z M72.91,191.539c15.888-18.08,35.688-32.883,58.655-42.94
		c12.784,8.918,25.379,19.078,37.424,30.51c-8.659,3.913-18.064,6.836-27.917,9.044c-24.892,5.548-50.79,6.757-75.54,12.43
		C67.881,197.487,70.348,194.462,72.91,191.539z M52.126,384.719c-6.694-12.077-12.022-25.183-15.683-39.177
		c-5.901-22.55-6.961-45.14-3.802-66.788c2.946-20.428,9.649-40.009,19.541-57.79v-0.015c3.308-1.1,6.702-2.082,10.183-2.946
		c12.25-3.096,25.497-4.888,39.326-6.64c13.821-1.784,28.294-3.465,43.074-6.773c12.666-2.837,25.254-6.938,36.772-12.965
		c7.512,7.874,14.733,16.258,21.608,25.12c-1.171,0.566-2.342,1.131-3.505,1.713c-11.299,5.688-22.087,12.493-32.333,20.1
		c-20.484,15.227-38.108,33.016-53.658,51.52c-15.526,18.566-28.962,37.958-40.866,57.444
		C65.28,359.89,58.389,372.321,52.126,384.719z M167.7,454.492c-0.833,4.519-1.736,8.997-2.765,13.334
		c-28.538-5.988-55.025-19.313-76.79-38.446c-9.83-8.62-18.685-18.426-26.362-29.245c7.402-14.693,15.652-29.481,24.798-44.142
		c11.7-18.795,24.86-37.448,39.836-55.175c14.977-17.687,31.799-34.525,50.94-48.723c9.562-7.119,19.533-13.412,29.858-18.63
		c2.019-0.99,4.062-1.995,6.105-2.954c11.668,16.641,22.197,34.736,31.233,53.995c-8.903,5.288-17.295,11.754-24.719,19.29
		c-8.36,8.493-15.322,18.135-20.885,28.231c-5.579,10.105-9.838,20.634-13.216,31.162c-6.742,21.089-10.143,42.1-13.271,62.089
		C170.906,435.289,169.444,445.056,167.7,454.492z M242.156,465.87c-20.814,5.452-41.684,6.773-61.806,4.463
		c1.045-4.259,1.98-8.565,2.844-12.87c1.949-9.782,3.56-19.675,5.217-29.607c3.332-19.848,6.821-40.041,13.193-59.519
		c6.301-19.415,15.777-38.1,30.243-52.699c5.901-5.995,12.493-11.22,19.58-15.612c14.229,34.007,23.242,68.885,28.695,102.452
		c2.483,15.393,4.282,30.526,5.492,45.266C272.383,455.608,257.832,461.768,242.156,465.87z M366.286,326.961
		c-4.691,32.466-18.873,62.827-40.276,87.208c-7.645,8.706-16.202,16.658-25.6,23.674c-0.966-12.384-2.388-25.018-4.322-37.872
		c-5.288-35.099-14.544-71.832-29.653-107.748c5.61-2.358,11.322-4.07,17.066-4.974c9.295-1.5,18.598-0.746,27.453,2.004
		c8.879,2.719,17.294,7.284,25.292,12.603c10.506,6.986,20.256,15.204,30.29,23.18C366.467,325.679,366.364,326.324,366.286,326.961
		z M345.267,288.467c-8.721-5.956-18.425-11.441-29.409-14.945c-10.93-3.52-23.148-4.604-34.91-2.758
		c-7.41,1.131-14.552,3.261-21.356,6.137c-8.879-18.874-19.227-36.678-30.706-53.179c3.457-1.398,6.938-2.727,10.379-3.968
		c21.631-7.802,43.695-12.595,65.358-14.166c10.984-0.802,21.867-0.77,32.513-0.016c11.338,16.053,20.044,34.384,25.348,54.593
		c4.007,15.33,5.782,30.675,5.492,45.753C360.88,300.065,353.44,294.061,345.267,288.467z"/>
</g>
</svg>